<?xml version="1.0" standalone="no"?>
<!DOCTYPE svg PUBLIC "-//W3C//DTD SVG 20010904//EN"
 "http://www.w3.org/TR/2001/REC-SVG-20010904/DTD/svg10.dtd">
<svg version="1.0" xmlns="http://www.w3.org/2000/svg"
 width="1371.000000pt" height="1371.000000pt" viewBox="0 0 1371.000000 1371.000000"
 preserveAspectRatio="xMidYMid meet">
<metadata>
Created by potrace 1.14, written by Peter Selinger 2001-2017
</metadata>
<g transform="translate(0.000000,1371.000000) scale(0.100000,-0.100000)"
fill="#000000" stroke="none">
<path d="M8055 13158 c5 -11 2 -16 -9 -14 -8 1 -19 5 -22 9 -4 4 -14 1 -22 -6
-13 -10 -14 -9 -8 1 7 11 4 11 -13 0 -17 -11 -25 -11 -42 0 -12 8 -18 9 -14 3
3 -6 1 -11 -4 -11 -6 0 -11 6 -11 13 0 8 -4 7 -10 -3 -8 -12 -10 -12 -10 -1 0
11 -3 11 -15 1 -11 -9 -15 -9 -15 -1 0 7 -5 9 -12 4 -22 -13 -48 -13 -48 0 0
8 -4 7 -10 -3 -9 -13 -11 -13 -20 0 -6 10 -13 11 -17 5 -7 -10 -21 -11 -40 -5
-5 1 -12 1 -18 0 -5 -1 -21 -4 -35 -6 -14 -2 -35 -5 -48 -8 -12 -3 -20 -1 -17
3 3 5 -2 11 -9 14 -8 3 -17 1 -19 -6 -3 -9 -7 -9 -19 0 -11 10 -17 10 -26 1
-7 -7 -12 -8 -12 -2 0 6 -7 11 -15 11 -8 0 -15 -3 -15 -7 0 -3 -18 -6 -40 -5
-22 0 -40 4 -40 9 0 5 -7 3 -15 -4 -8 -7 -22 -10 -30 -6 -8 3 -15 0 -15 -7 0
-7 -3 -8 -8 -2 -6 8 -146 12 -154 5 -2 -1 -21 -4 -43 -5 -22 -2 -78 -6 -125
-10 -47 -4 -93 -7 -102 -7 -10 1 -18 -3 -18 -7 0 -7 -11 -8 -127 -10 -35 -1
-53 -6 -53 -14 0 -9 -3 -8 -9 2 -5 8 -11 9 -15 3 -3 -5 -17 -8 -31 -7 -14 2
-27 0 -30 -4 -2 -4 -14 -7 -27 -6 -13 1 -26 -3 -30 -9 -5 -8 -8 -7 -8 2 0 9
-6 10 -17 4 -10 -4 -25 -8 -33 -7 -8 0 -36 -5 -62 -11 -36 -9 -48 -9 -48 -1 0
9 -2 9 -8 1 -4 -6 -14 -11 -22 -12 -72 -4 -113 -11 -119 -19 -3 -5 -16 -8 -28
-7 -13 1 -23 -2 -23 -5 0 -4 -12 -6 -27 -6 -16 1 -36 -3 -46 -8 -16 -7 -34
-12 -73 -21 -7 -1 -19 -8 -29 -16 -14 -11 -16 -11 -13 1 2 8 -3 12 -12 10 -8
-2 -27 -4 -42 -5 -16 -1 -28 -4 -28 -8 0 -5 -5 -8 -11 -8 -5 0 -7 6 -3 13 9
13 -26 -11 -38 -28 -5 -6 -8 -6 -8 1 0 8 -11 9 -35 4 -19 -4 -35 -6 -35 -3 0
3 -7 0 -15 -7 -8 -7 -15 -9 -15 -5 0 4 -6 3 -13 -4 -10 -8 -17 -7 -25 1 -9 9
-12 7 -12 -7 0 -12 -3 -16 -8 -10 -6 10 -20 11 -39 5 -5 -1 -11 -2 -15 -1 -5
0 -8 -3 -8 -7 0 -5 -13 -8 -29 -7 -16 1 -46 -7 -67 -17 -40 -19 -59 -24 -34
-8 11 7 9 8 -11 6 -13 -1 -30 -6 -37 -10 -7 -4 -12 -2 -12 6 0 9 -3 9 -8 2 -4
-6 -36 -17 -72 -24 -36 -7 -72 -16 -80 -21 -9 -4 -24 -2 -35 4 -18 9 -19 9 -6
-6 18 -22 3 -22 -23 1 -17 14 -19 14 -8 0 9 -11 10 -18 2 -23 -5 -3 -10 -1
-10 5 0 7 -6 8 -18 1 -13 -7 -23 -6 -32 2 -10 9 -11 9 -6 0 4 -8 1 -13 -8 -14
-25 -2 -30 -4 -45 -13 -10 -6 -12 -5 -7 2 4 7 3 12 -3 12 -5 0 -11 -4 -13 -10
-3 -10 -45 -19 -100 -23 -16 -1 -28 -6 -29 -12 0 -5 -4 -1 -9 10 -8 20 -9 20
-9 -1 -1 -15 -7 -20 -23 -19 -13 1 -43 -5 -68 -12 -25 -8 -59 -13 -76 -11 -25
3 -31 1 -26 -12 5 -13 3 -13 -10 -2 -11 9 -17 9 -20 2 -2 -6 -10 -12 -18 -14
-8 -1 -26 -8 -39 -15 -19 -11 -25 -11 -32 0 -7 11 -9 11 -9 1 0 -7 -4 -10 -10
-7 -5 3 -10 -1 -10 -10 0 -15 -1 -15 -16 0 -10 9 -20 13 -23 8 -13 -18 -56
-30 -79 -22 -15 6 -21 5 -17 -1 6 -10 -10 -15 -30 -10 -5 1 -22 2 -38 2 -15 0
-25 3 -22 8 3 5 -4 7 -17 5 -12 -3 -26 -12 -31 -20 -7 -14 -11 -14 -25 -3 -15
12 -16 11 -3 -5 10 -12 17 -14 26 -7 9 7 16 6 24 -3 9 -11 5 -13 -17 -12 -15
1 -34 4 -42 6 -10 3 -14 -2 -12 -15 3 -17 2 -18 -12 -7 -14 11 -16 11 -16 -3
0 -9 -4 -16 -10 -16 -5 0 -7 8 -4 18 5 13 4 14 -4 3 -6 -8 -15 -10 -23 -5 -11
6 -11 4 0 -10 8 -9 10 -16 5 -15 -22 4 -35 -2 -28 -13 4 -7 3 -8 -5 -4 -9 6
-9 11 1 24 11 14 10 15 -5 9 -10 -4 -23 -7 -28 -7 -5 0 -9 -6 -9 -14 0 -16
-45 -27 -58 -14 -5 5 -21 -1 -38 -14 -18 -14 -24 -16 -15 -5 8 10 9 17 3 17
-6 0 -15 -7 -20 -17 -6 -10 -16 -14 -26 -10 -9 4 -16 2 -16 -4 0 -6 -4 -7 -10
-4 -5 3 -10 2 -10 -3 0 -6 -10 -10 -22 -10 -31 0 -47 -5 -84 -25 -17 -9 -35
-13 -39 -9 -5 4 -5 1 -1 -5 4 -7 3 -13 -2 -13 -5 0 -14 10 -21 23 -6 12 -10
15 -7 6 4 -13 -2 -16 -27 -15 -18 0 -38 8 -45 16 -8 8 -11 10 -8 3 8 -15 -53
-15 -73 1 -11 8 -13 8 -7 -1 5 -9 -1 -13 -21 -13 -16 0 -35 -6 -41 -12 -8 -8
-15 -9 -20 -3 -10 14 -39 17 -47 5 -3 -5 -19 -10 -35 -10 -16 0 -32 -5 -36
-11 -5 -8 -9 -8 -14 1 -4 7 -10 -1 -15 -22 -7 -32 -7 -33 -15 -8 -5 15 -8 19
-9 8 -1 -9 -5 -20 -11 -23 -5 -3 -7 0 -4 8 3 8 -1 14 -10 14 -8 0 -12 -6 -9
-13 3 -9 -2 -11 -16 -7 -12 3 -21 1 -21 -6 0 -6 -7 -11 -15 -11 -8 0 -15 -4
-15 -10 0 -5 -3 -10 -7 -9 -5 1 -18 -2 -30 -6 -25 -8 -31 -25 -10 -26 6 0 2
-4 -11 -10 -13 -5 -20 -13 -17 -19 4 -6 1 -9 -7 -8 -7 2 -13 -6 -13 -16 0 -13
-8 -20 -23 -21 -28 -2 -28 3 3 27 14 11 30 29 36 41 9 19 8 20 -3 6 -7 -8 -25
-24 -41 -33 -18 -12 -27 -27 -27 -45 0 -20 -2 -23 -10 -11 -9 15 -25 7 -25
-13 -1 -7 -6 -11 -13 -10 -7 2 -12 -2 -12 -7 0 -6 -5 -10 -12 -10 -16 0 -79
-70 -72 -81 3 -5 11 -6 17 -2 7 4 6 0 -2 -10 -15 -19 -26 -23 -15 -5 5 7 3 8
-5 4 -7 -5 -10 -15 -6 -23 4 -13 3 -14 -10 -3 -12 10 -15 10 -15 -3 0 -8 -6
-18 -12 -20 -8 -3 -6 -6 5 -6 9 -1 17 -5 17 -11 0 -5 -7 -6 -17 -3 -10 4 -14
2 -9 -5 3 -6 -3 -13 -14 -17 -22 -7 -27 -25 -7 -25 8 0 7 -3 -3 -10 -9 -6 -17
-5 -21 1 -4 6 -9 4 -13 -6 -3 -9 -4 -21 -1 -25 3 -5 0 -12 -6 -16 -8 -5 -10
-2 -5 7 4 8 1 5 -8 -5 -8 -10 -13 -22 -11 -27 3 -4 1 -10 -4 -13 -5 -4 -13 -1
-17 5 -5 8 -3 9 6 4 9 -5 11 -4 6 4 -4 6 -12 9 -17 5 -5 -3 -7 -10 -4 -15 4
-5 -1 -9 -10 -9 -9 0 -14 -4 -11 -8 3 -5 -4 -15 -15 -22 -10 -8 -19 -20 -19
-27 0 -7 -5 -13 -11 -13 -5 0 -7 -4 -4 -10 3 -5 0 -7 -8 -4 -8 3 -18 0 -23 -7
-5 -8 -3 -10 7 -4 11 7 11 5 -1 -10 -37 -47 -44 -53 -56 -48 -9 3 -14 -2 -14
-12 0 -9 -4 -14 -8 -11 -10 6 -42 -29 -42 -45 0 -5 -4 -8 -9 -4 -5 3 -12 1
-16 -5 -3 -5 -1 -10 5 -10 7 0 6 -5 -2 -14 -7 -8 -16 -12 -20 -9 -5 2 -8 0 -8
-5 0 -5 -9 -12 -21 -15 -12 -3 -18 -10 -14 -16 4 -7 -1 -8 -12 -4 -15 6 -16 4
-5 -9 10 -13 10 -18 1 -24 -8 -4 -9 -3 -5 4 4 7 1 12 -9 12 -9 0 -14 -4 -10
-9 3 -5 -4 -13 -16 -16 -17 -6 -19 -9 -8 -16 10 -6 10 -9 2 -9 -7 0 -29 -17
-50 -37 -20 -21 -33 -31 -28 -23 5 8 -20 -14 -56 -50 -36 -36 -61 -68 -56 -71
5 -4 0 -12 -12 -18 -11 -7 -21 -18 -21 -25 0 -19 -25 -27 -39 -13 -10 9 -12 9
-9 -3 2 -8 -2 -14 -8 -13 -8 1 -10 -6 -6 -19 3 -14 1 -19 -6 -14 -7 4 -12 2
-12 -4 0 -6 -4 -9 -8 -6 -5 3 -15 -6 -22 -19 -7 -13 -17 -22 -22 -19 -4 3 -8
1 -8 -4 0 -4 -14 -24 -30 -42 -17 -19 -29 -39 -26 -46 2 -6 -3 -11 -12 -10
-10 1 -16 -6 -16 -16 1 -10 -2 -15 -7 -12 -5 3 -9 0 -9 -6 0 -6 -4 -8 -10 -5
-5 3 -10 -1 -10 -9 0 -8 -4 -18 -10 -21 -6 -4 -7 1 -4 12 4 11 -1 8 -12 -7
-10 -14 -27 -31 -37 -39 -15 -11 -16 -15 -6 -23 10 -7 8 -8 -9 -5 -12 3 -20 1
-16 -4 5 -9 -43 -59 -57 -59 -5 0 -9 -7 -9 -15 0 -8 -7 -15 -16 -15 -8 0 -12
-5 -9 -10 4 -6 11 -7 17 -4 7 4 8 2 4 -5 -4 -6 -12 -9 -17 -6 -5 4 -9 1 -9 -4
0 -6 -3 -10 -7 -9 -12 4 -54 -28 -46 -35 3 -4 1 -7 -5 -7 -7 0 -11 -6 -9 -12
1 -7 -4 -12 -11 -10 -8 1 -11 -2 -7 -8 3 -5 1 -10 -4 -10 -6 0 -10 -5 -8 -12
1 -7 -3 -12 -10 -13 -6 0 -15 -4 -20 -9 -4 -5 -3 -6 3 -3 16 9 26 -20 11 -30
-18 -11 -38 -13 -31 -2 3 5 10 6 16 3 7 -4 8 -2 4 4 -7 11 -36 6 -36 -7 0 -4
6 -13 12 -20 11 -11 10 -12 -1 -6 -11 6 -13 4 -8 -11 5 -14 2 -13 -13 6 -11
14 -18 18 -15 9 4 -9 -1 -24 -10 -33 -9 -9 -13 -16 -9 -16 4 0 -1 -7 -12 -16
-10 -8 -13 -12 -6 -9 11 6 11 3 1 -13 -7 -12 -17 -18 -21 -16 -4 3 -8 -2 -8
-11 0 -11 -5 -15 -15 -11 -9 3 -15 0 -15 -10 0 -9 5 -12 12 -8 7 4 8 3 4 -4
-4 -7 -14 -12 -22 -12 -17 0 -19 -17 -2 -22 7 -3 5 -7 -6 -11 -10 -4 -15 -3
-11 3 3 6 1 10 -5 10 -6 0 -16 -11 -22 -25 -6 -14 -14 -25 -18 -25 -11 0 -33
-58 -26 -69 4 -5 2 -13 -4 -16 -6 -4 -10 -3 -9 2 3 19 -2 23 -15 11 -8 -7 -12
-16 -9 -20 2 -5 -1 -8 -7 -8 -7 0 -7 -7 1 -22 11 -21 11 -22 -5 -8 -16 13 -18
12 -16 -5 4 -33 1 -45 -11 -45 -8 0 -8 4 0 14 9 11 9 16 -1 22 -7 4 -10 3 -5
-1 4 -5 -1 -17 -10 -28 -10 -11 -12 -17 -5 -13 6 4 12 2 12 -3 0 -6 -5 -11
-11 -11 -5 0 -7 -5 -3 -12 4 -7 3 -8 -5 -4 -15 10 -43 -13 -34 -27 3 -5 -5
-18 -18 -27 -20 -16 -21 -20 -9 -37 12 -15 12 -16 0 -5 -16 13 -31 16 -28 5 3
-15 -16 -48 -39 -69 -25 -23 -31 -39 -10 -29 6 4 1 -2 -12 -13 -13 -11 -21
-24 -17 -31 4 -6 0 -11 -9 -11 -11 0 -15 -5 -11 -16 3 -8 2 -13 -3 -9 -5 3
-15 -8 -23 -25 -7 -16 -17 -30 -22 -30 -4 0 -2 -8 5 -17 8 -9 9 -14 3 -10 -7
4 -18 -1 -25 -10 -12 -14 -12 -16 1 -9 12 6 12 5 -1 -6 -16 -14 -33 -48 -31
-60 1 -5 -3 -8 -9 -8 -5 0 -8 -4 -4 -9 3 -6 -4 -15 -16 -22 -17 -9 -19 -13 -8
-20 12 -7 12 -9 0 -9 -8 0 -11 -6 -7 -16 3 -8 2 -12 -4 -9 -6 3 -10 1 -10 -4
0 -22 -2 -26 -16 -34 -8 -4 -14 -15 -14 -22 0 -8 -5 -15 -12 -15 -6 0 -3 -7 8
-15 16 -13 16 -14 1 -9 -13 5 -21 -3 -33 -32 -15 -35 -15 -39 1 -50 10 -8 12
-14 6 -19 -6 -3 -11 -2 -11 3 0 5 -7 9 -15 9 -11 0 -12 -4 -4 -14 9 -10 7 -13
-7 -13 -14 0 -16 -2 -6 -9 11 -7 11 -9 -2 -14 -9 -4 -16 -14 -16 -22 0 -10 -5
-13 -12 -9 -7 4 -8 3 -4 -4 4 -7 2 -12 -5 -12 -7 0 -5 -6 6 -13 17 -13 17 -15
-5 -30 -12 -8 -19 -20 -15 -26 3 -6 -1 -11 -9 -11 -11 0 -14 -8 -11 -29 2 -23
0 -28 -11 -24 -15 6 -35 -33 -27 -54 3 -7 1 -13 -5 -13 -18 0 -21 -40 -4 -51
14 -8 12 -9 -8 -3 -14 3 -22 3 -17 -1 4 -5 0 -19 -9 -33 -8 -13 -13 -26 -10
-29 3 -3 -1 -11 -10 -17 -8 -7 -17 -23 -19 -36 -13 -71 -18 -90 -27 -90 -6 0
-8 -11 -6 -25 3 -13 2 -22 -2 -20 -5 3 -10 -2 -13 -9 -4 -9 1 -17 11 -19 15
-4 15 -5 -1 -6 -10 0 -15 -5 -12 -11 3 -5 1 -10 -6 -10 -8 0 -8 -4 1 -15 11
-13 10 -14 -4 -9 -9 4 -16 3 -15 -2 3 -18 -14 -74 -21 -69 -10 6 -6 -37 5 -55
6 -10 4 -12 -7 -7 -17 6 -19 -8 -4 -32 7 -10 6 -12 -4 -6 -10 6 -12 4 -7 -9 6
-14 3 -17 -9 -12 -14 5 -15 4 -4 -9 10 -12 10 -15 -1 -15 -10 0 -10 -3 -1 -12
15 -15 15 -28 1 -28 -5 0 -7 6 -3 13 4 6 3 8 -1 4 -14 -12 -18 -37 -19 -103
-1 -50 -4 -60 -16 -56 -13 5 -13 4 0 -13 9 -11 10 -16 3 -11 -8 4 -13 1 -13
-8 0 -28 -1 -31 -15 -53 -13 -20 -13 -23 1 -31 15 -8 15 -10 -1 -15 -9 -4 -13
-11 -10 -17 3 -5 2 -10 -2 -10 -5 0 -9 -11 -9 -25 0 -14 5 -25 10 -25 6 0 6
-4 -1 -8 -15 -10 -22 -58 -8 -55 17 3 13 -41 -4 -55 -13 -11 -13 -12 -1 -6 12
7 13 5 3 -8 -7 -8 -10 -18 -6 -22 4 -4 -1 -4 -12 0 -11 4 -17 4 -13 0 4 -5 3
-19 -2 -31 -6 -16 -5 -25 3 -28 9 -3 9 -7 0 -19 -21 -25 -36 -243 -16 -243 6
0 15 -4 20 -9 5 -5 3 -6 -4 -2 -8 4 -13 2 -13 -6 0 -10 -3 -9 -11 2 -9 12 -10
11 -6 -7 3 -13 2 -23 -3 -23 -4 0 -6 -15 -4 -32 10 -83 10 -90 -4 -95 -11 -5
-11 -7 0 -14 8 -6 9 -9 1 -9 -14 0 -11 -23 5 -43 10 -12 10 -17 1 -23 -7 -4
-9 -3 -5 4 3 6 2 13 -3 16 -10 7 -9 -9 4 -38 5 -12 3 -21 -6 -27 -12 -7 -12
-9 1 -9 13 0 13 -1 0 -10 -8 -5 -11 -10 -6 -10 5 0 3 -7 -4 -16 -11 -12 -11
-15 -1 -12 20 5 22 -31 3 -42 -10 -5 -12 -10 -4 -10 15 0 16 -30 0 -30 -6 0
-4 -8 6 -19 11 -12 14 -21 7 -26 -6 -3 -11 -11 -11 -16 0 -6 5 -7 11 -3 8 5 8
1 0 -13 -7 -14 -7 -23 1 -31 8 -8 7 -13 -4 -17 -21 -8 -16 -50 6 -49 16 2 16
0 1 -23 -9 -14 -14 -27 -11 -30 3 -4 1 -12 -5 -20 -9 -10 -8 -13 2 -13 9 0 10
-3 4 -8 -15 -11 -12 -55 5 -70 8 -8 9 -11 3 -7 -8 4 -13 0 -13 -10 0 -10 5
-13 13 -9 9 6 9 4 -1 -8 -14 -18 -13 -80 3 -90 6 -5 5 -8 -4 -8 -9 0 -10 -4
-4 -12 6 -7 9 -35 8 -63 0 -27 4 -53 9 -57 8 -5 8 -8 0 -8 -12 0 -11 -41 1
-59 3 -6 1 -11 -5 -11 -8 0 -7 -6 1 -21 9 -17 8 -23 -2 -30 -12 -7 -7 -12 11
-11 8 1 5 -77 -3 -84 -11 -11 -8 -26 3 -19 7 4 9 -3 6 -19 -3 -14 -1 -28 4
-31 5 -3 5 -19 0 -35 -5 -17 -5 -28 0 -25 4 3 10 -2 14 -10 3 -8 1 -15 -3 -15
-10 0 -9 -15 4 -43 4 -10 5 -21 1 -24 -3 -3 0 -13 7 -21 10 -12 9 -16 -1 -20
-10 -3 -10 -7 0 -20 11 -14 10 -15 -7 -9 -19 7 -19 6 -1 -7 10 -9 15 -20 10
-27 -4 -7 -3 -10 3 -6 6 4 11 -4 11 -18 0 -15 -5 -22 -12 -18 -6 3 -6 0 2 -8
6 -7 12 -26 12 -42 0 -20 4 -26 13 -21 6 4 4 -2 -7 -14 -17 -20 -17 -22 -2
-28 11 -4 16 -18 16 -45 0 -36 -7 -44 -33 -40 -5 1 -6 -3 -2 -9 3 -6 11 -8 16
-5 5 4 9 2 9 -4 0 -5 -7 -14 -16 -19 -11 -6 -13 -11 -5 -16 6 -4 11 -2 11 4 0
6 5 8 10 5 8 -5 7 -11 -1 -21 -7 -8 -7 -14 -1 -14 16 0 22 26 9 40 -10 10 -7
10 12 0 13 -7 20 -15 15 -19 -14 -10 -15 -31 -2 -31 7 0 14 -11 14 -25 1 -14
-2 -25 -8 -25 -5 0 -6 5 -3 10 3 6 -1 10 -10 10 -9 0 -14 -4 -11 -9 4 -5 3
-11 -1 -14 -5 -2 -3 -2 4 -1 7 2 19 -3 27 -11 7 -8 18 -11 22 -7 5 4 3 0 -3
-8 -15 -17 -17 -34 -3 -25 6 4 10 -10 10 -34 0 -22 -6 -42 -12 -45 -7 -3 -3
-3 9 0 18 4 21 1 18 -15 -2 -11 1 -23 6 -26 5 -4 7 -11 4 -16 -4 -5 -3 -14 1
-20 4 -8 9 -7 15 2 5 8 9 10 9 4 0 -5 -5 -17 -10 -25 -8 -13 -11 -12 -25 5
-16 20 -16 20 -6 -2 9 -18 8 -23 -11 -29 -18 -5 -19 -8 -6 -15 10 -5 15 -20
13 -39 -1 -16 1 -27 6 -24 5 3 9 -2 9 -10 0 -9 -5 -16 -11 -16 -5 0 -7 -5 -3
-12 5 -8 11 -5 17 10 9 20 11 21 24 4 13 -15 13 -15 3 6 -6 13 -13 33 -15 44
-3 11 -12 27 -22 35 -17 14 -17 14 0 9 10 -3 16 -2 13 2 -3 5 1 9 9 9 8 0 12
-4 9 -9 -3 -5 -1 -14 4 -21 6 -7 11 -15 11 -19 1 -5 1 -9 2 -10 0 -2 2 -24 3
-49 1 -28 8 -53 19 -63 22 -22 22 -22 -8 -22 -18 0 -21 3 -14 12 7 8 7 14 -1
19 -5 3 -10 5 -11 3 -9 -40 -8 -50 7 -44 12 4 15 2 10 -9 -3 -8 -1 -15 3 -15
5 0 11 6 14 13 3 8 10 7 23 -7 11 -10 14 -16 9 -13 -15 8 -60 -19 -46 -27 6
-4 11 -2 11 3 0 6 7 11 16 11 8 0 12 -4 9 -10 -3 -5 1 -10 9 -10 8 0 17 -4 20
-9 3 -4 -9 -7 -27 -5 -17 2 -27 0 -21 -4 15 -10 14 -44 -2 -38 -7 3 -11 -2 -9
-12 2 -9 4 -21 5 -27 1 -14 20 21 25 47 5 26 11 32 20 19 3 -6 2 -11 -4 -11
-5 0 -8 -9 -6 -20 2 -11 0 -20 -4 -20 -4 0 -8 -6 -8 -14 0 -12 5 -11 26 2 14
10 22 12 18 5 -5 -7 -4 -13 1 -13 5 0 12 -11 14 -25 5 -22 3 -23 -16 -13 -19
10 -20 10 -7 -5 7 -10 21 -17 29 -17 13 0 11 -4 -5 -15 -13 -9 -20 -22 -16
-30 4 -11 1 -13 -13 -8 -18 7 -18 6 -1 -11 18 -19 14 -41 -6 -29 -7 4 -6 0 2
-10 15 -18 26 -23 16 -7 -3 6 -1 10 5 10 7 0 9 9 5 23 -4 15 -3 18 3 8 7 -9
12 -10 16 -2 4 6 3 11 -2 11 -14 0 -23 28 -11 35 5 4 8 1 7 -7 -2 -7 2 -12 9
-11 7 2 10 -6 8 -17 -2 -11 1 -20 6 -20 6 0 9 -6 6 -12 -2 -7 3 -19 12 -26 14
-11 13 -12 -5 -3 -12 6 -25 7 -30 3 -5 -4 -3 0 4 10 9 11 10 18 2 23 -6 4 -10
3 -9 -2 1 -4 0 -10 -1 -13 -10 -27 -7 -40 10 -35 30 9 33 -13 6 -40 -14 -14
-21 -25 -16 -25 6 0 10 -5 10 -11 0 -5 -4 -8 -8 -5 -4 2 -8 -4 -8 -15 0 -19 1
-19 13 -3 11 15 13 14 19 -10 6 -27 29 -35 37 -13 4 9 6 9 6 -1 1 -7 5 -11 9
-8 5 3 9 -1 9 -9 0 -8 -5 -11 -10 -8 -5 3 -7 0 -5 -8 3 -8 11 -13 18 -11 6 1
3 -9 -9 -24 -11 -14 -18 -31 -15 -36 3 -5 0 -17 -7 -26 -11 -13 -8 -12 9 2 12
11 22 14 22 8 0 -6 -5 -14 -10 -17 -6 -4 -8 -11 -4 -16 3 -5 10 -6 16 -3 7 4
8 2 4 -4 -4 -6 -13 -9 -21 -5 -8 3 -15 0 -15 -6 0 -6 7 -11 15 -11 8 0 15 -5
15 -11 0 -6 6 -9 14 -6 18 7 31 -24 15 -33 -8 -6 -7 -9 2 -13 12 -4 11 -7 -1
-16 -9 -6 -10 -11 -3 -11 6 0 14 -8 16 -17 3 -10 4 -2 3 17 -1 21 5 41 14 50
9 8 11 12 5 8 -7 -4 -15 -5 -18 -1 -13 12 -7 20 15 19 14 -1 22 -8 23 -23 1
-13 -3 -19 -10 -16 -14 5 -15 -63 -1 -85 7 -12 4 -12 -15 -2 -20 9 -21 9 -8
-2 9 -7 14 -19 11 -26 -3 -9 3 -7 16 4 16 13 18 22 11 35 -12 23 -11 29 1 29
6 0 9 -3 9 -7 -3 -19 2 -33 12 -33 5 0 7 5 4 10 -3 6 -1 10 4 10 6 0 11 -3 12
-7 0 -5 2 -16 4 -26 2 -10 -1 -14 -7 -11 -6 4 -9 1 -6 -7 3 -8 10 -14 15 -14
6 0 13 -2 15 -5 1 -3 1 -4 -1 -3 -2 2 -11 -3 -19 -10 -13 -10 -14 -9 -7 2 6
10 4 12 -5 6 -9 -5 -11 -4 -6 3 5 8 2 10 -9 6 -14 -6 -14 -7 1 -18 8 -7 29
-11 45 -10 16 1 27 -2 24 -7 -3 -4 -12 -6 -19 -3 -8 3 -17 0 -22 -7 -4 -7 -3
-10 4 -6 17 11 42 -4 42 -25 0 -10 4 -16 10 -13 6 4 7 -1 3 -11 -4 -11 -3 -15
5 -10 6 3 14 1 18 -5 4 -8 3 -9 -4 -5 -7 4 -12 3 -12 -3 0 -5 5 -13 10 -16 6
-4 7 -11 4 -17 -5 -7 -2 -9 7 -6 10 4 15 -3 15 -23 1 -21 -4 -30 -20 -36 -11
-4 -25 -6 -29 -5 -5 1 -6 -2 -2 -7 4 -7 15 -7 30 -1 20 8 25 6 25 -6 0 -9 5
-12 12 -8 7 4 8 3 4 -4 -4 -7 -1 -12 8 -12 9 0 16 -4 16 -10 0 -5 -8 -6 -17
-3 -15 6 -16 4 -6 -8 10 -13 10 -16 -1 -16 -8 0 -13 8 -11 19 2 10 0 16 -6 13
-5 -4 -8 -1 -7 6 2 6 -4 14 -12 16 -10 3 -11 2 -4 -4 6 -4 10 -16 8 -25 -1
-10 2 -20 6 -23 5 -3 7 -18 4 -33 -3 -19 -2 -23 5 -12 5 8 7 18 5 22 -3 4 -1
8 5 8 5 0 9 -14 9 -32 -1 -18 4 -34 10 -36 16 -5 15 -39 0 -45 -7 -3 -3 -6 10
-6 12 -1 22 -6 22 -12 0 -5 -6 -7 -12 -3 -10 6 -10 5 -1 -8 7 -8 9 -18 5 -23
-4 -4 4 -2 18 5 22 12 23 11 13 -1 -13 -16 -5 -35 15 -34 12 0 15 16 5 25 -4
3 -3 -1 1 -7 5 -9 2 -11 -10 -6 -11 4 -13 8 -6 11 7 2 12 10 12 17 0 8 5 17
10 20 6 4 9 1 8 -7 -2 -7 4 -12 12 -10 8 2 12 0 8 -4 -4 -4 -2 -14 5 -22 10
-13 9 -14 -1 -8 -21 12 -27 -23 -6 -39 13 -9 24 -10 38 -3 13 7 16 7 12 -1 -4
-6 -2 -11 4 -11 7 0 9 -8 5 -22 -6 -16 -4 -20 7 -16 20 8 40 -26 25 -41 -6 -6
-16 -11 -22 -11 -5 0 -3 5 5 10 13 9 13 10 0 10 -13 0 -13 1 0 11 13 9 13 10
0 6 -8 -2 -14 -10 -12 -16 1 -6 -2 -11 -8 -11 -5 0 -10 5 -10 10 0 6 -5 10
-10 10 -6 0 -3 -11 5 -24 16 -25 44 -26 74 -2 11 8 13 8 8 -1 -4 -6 -2 -13 5
-16 7 -2 5 -3 -4 -2 -10 2 -18 -1 -18 -6 0 -8 6 -10 37 -13 7 -1 13 -5 13 -9
0 -4 0 -9 0 -12 0 -3 -9 -1 -20 5 -11 6 -20 8 -20 5 0 -3 16 -13 35 -21 19 -8
35 -21 35 -29 0 -8 4 -15 8 -15 8 0 45 -71 48 -92 1 -4 3 -10 4 -13 1 -3 4 -9
5 -15 1 -5 4 -12 5 -15 1 -3 3 -11 4 -17 1 -7 7 -12 14 -10 7 1 12 -1 12 -5 0
-17 -16 -29 -37 -27 -12 1 -20 -2 -18 -7 3 -4 -1 -9 -7 -12 -7 -2 -1 -4 15 -4
15 0 30 3 33 8 9 15 26 10 20 -7 -3 -8 -2 -12 4 -9 6 3 10 -1 10 -9 0 -9 5
-16 11 -16 5 0 7 -5 4 -10 -3 -6 1 -17 10 -26 12 -12 13 -20 6 -27 -6 -6 -11
-16 -11 -22 0 -5 5 -3 10 5 8 12 10 11 10 -7 0 -13 3 -23 8 -23 4 0 13 -9 20
-21 10 -16 10 -19 1 -13 -7 4 -6 -2 3 -15 9 -12 13 -32 10 -43 -3 -13 -1 -19
5 -15 6 4 11 -4 11 -19 0 -15 3 -29 8 -33 5 -3 11 -15 12 -26 2 -11 8 -24 13
-29 5 -6 9 -23 9 -38 0 -15 5 -28 12 -28 6 0 9 -3 5 -6 -3 -4 0 -19 8 -34 8
-15 11 -30 8 -34 -4 -3 -1 -6 5 -6 6 0 9 -9 7 -20 -2 -11 0 -18 6 -15 5 4 9 0
10 -7 2 -45 36 -128 51 -128 5 0 7 -4 3 -9 -6 -11 15 -61 27 -61 4 0 8 -6 8
-12 0 -19 56 -99 63 -91 4 3 7 -3 7 -14 0 -11 11 -26 25 -33 14 -7 23 -15 20
-18 -5 -5 7 -17 61 -59 23 -18 44 -30 48 -26 3 3 6 -1 6 -11 0 -10 5 -14 11
-11 5 4 18 1 27 -7 28 -23 70 -41 80 -34 6 3 14 1 18 -5 5 -8 3 -9 -7 -4 -8 5
-11 4 -6 -1 5 -5 13 -10 18 -10 5 -1 10 -2 12 -4 1 -1 10 -3 19 -5 9 -2 32
-10 49 -19 18 -9 38 -16 46 -16 7 0 13 -6 13 -12 0 -8 3 -9 8 -3 11 16 32 16
32 1 0 -8 9 -12 25 -11 14 2 25 -2 25 -8 0 -7 5 -5 10 3 6 10 10 11 10 3 0 -7
7 -13 15 -13 8 0 15 -4 15 -9 0 -5 8 -8 17 -6 10 1 24 -2 31 -8 8 -6 12 -6 12
2 0 7 9 6 25 -5 14 -9 31 -14 39 -11 8 3 16 2 18 -3 2 -6 16 -11 32 -12 15 -1
31 -8 33 -15 3 -7 9 -10 14 -7 11 7 79 -55 79 -73 0 -7 5 -13 10 -13 6 0 10
-7 10 -15 0 -8 5 -15 10 -15 6 0 10 -9 10 -20 0 -22 19 -60 35 -72 6 -5 4 -8
-5 -8 -9 0 -11 -3 -4 -8 13 -9 25 -39 30 -72 2 -14 4 -31 5 -37 1 -7 6 -13 11
-13 5 0 7 -4 4 -9 -3 -5 2 -30 11 -55 14 -38 21 -45 38 -41 11 3 14 2 8 -1 -7
-3 -13 -10 -13 -15 0 -6 6 -7 13 -3 9 5 9 4 0 -6 -8 -9 -6 -21 10 -49 28 -47
29 -48 76 -102 23 -25 41 -54 41 -63 0 -10 4 -14 10 -11 5 3 10 -1 10 -10 0
-9 4 -13 10 -10 6 3 10 1 10 -6 0 -7 2 -10 5 -7 10 9 80 -66 77 -82 -2 -13 -2
-13 8 0 7 10 12 11 18 4 4 -6 15 -13 25 -17 10 -4 15 -12 12 -17 -4 -6 -3 -9
2 -8 15 4 53 -13 53 -24 0 -6 3 -9 6 -5 3 3 24 -5 45 -19 21 -13 45 -24 54
-24 8 0 15 -5 15 -11 0 -5 4 -8 9 -5 5 4 11 2 13 -2 5 -13 148 -82 169 -82 11
0 19 -5 19 -11 0 -6 7 -9 15 -5 8 3 15 0 15 -6 0 -6 3 -9 6 -6 3 3 33 -5 67
-19 34 -14 70 -25 80 -25 9 1 17 -4 17 -9 0 -6 5 -7 11 -3 6 3 15 0 20 -7 7
-12 9 -11 9 1 0 12 2 12 9 2 4 -8 26 -15 49 -15 22 -1 38 -5 35 -9 -4 -7 21
-11 70 -11 9 0 17 -4 17 -9 0 -6 7 -8 15 -4 10 3 15 -1 15 -11 0 -13 3 -14 12
-5 17 17 33 15 19 -2 -15 -17 -1 -30 39 -35 18 -2 11 -19 -11 -26 -14 -5 -25
-2 -31 6 -7 11 -9 11 -7 -1 3 -28 -1 -41 -10 -36 -5 3 -14 -1 -20 -8 -10 -12
-8 -13 8 -9 12 3 21 1 21 -5 0 -5 7 -13 16 -16 9 -4 13 -2 8 5 -4 7 -1 10 7 7
8 -3 13 -11 11 -18 -2 -10 1 -10 14 1 12 9 15 9 10 2 -4 -8 -2 -13 5 -13 9 0
9 -3 0 -14 -9 -11 -9 -16 0 -22 8 -4 9 -3 5 4 -11 19 19 14 58 -9 20 -12 36
-28 37 -37 0 -14 1 -15 7 -2 16 34 68 5 57 -31 -6 -19 -5 -20 8 -8 8 8 12 21
9 29 -5 11 -2 11 12 -2 9 -10 27 -16 39 -14 12 2 30 -4 40 -12 20 -18 50 -26
41 -11 -3 5 -10 7 -15 4 -5 -4 -9 -1 -9 5 0 8 7 9 18 5 9 -4 25 -7 35 -7 9 0
17 -4 17 -9 0 -6 5 -7 11 -4 5 4 20 -1 32 -12 19 -16 20 -16 8 0 -12 15 -12
17 3 11 9 -3 16 -11 16 -16 0 -6 8 -4 17 3 9 8 14 9 10 3 -4 -7 0 -14 8 -18 8
-3 17 0 21 6 4 7 3 8 -4 4 -7 -4 -12 -3 -12 3 0 5 9 9 19 8 11 0 17 -5 15 -9
-3 -4 8 -10 23 -14 15 -3 37 -9 48 -12 11 -3 26 -5 33 -3 7 1 29 -3 47 -9 19
-6 48 -12 65 -12 16 -1 30 -5 30 -9 0 -11 42 -7 59 5 11 8 13 8 7 -1 -5 -9 1
-12 23 -9 20 2 31 -1 31 -9 0 -6 6 -12 13 -13 28 -3 93 -13 105 -17 7 -3 10
-1 7 5 -3 5 4 8 15 7 11 -1 20 -5 20 -10 0 -4 5 -5 10 -2 6 3 10 1 10 -4 0 -6
5 -11 11 -11 5 0 7 4 4 10 -3 5 -1 10 4 10 6 0 11 -4 11 -10 0 -5 5 -10 11
-10 5 0 7 6 4 13 -4 6 0 4 8 -5 9 -12 28 -18 54 -18 22 0 43 -3 47 -7 4 -4 24
-8 44 -8 20 0 43 -4 50 -8 8 -6 12 -2 13 10 0 14 2 15 7 3 4 -8 21 -16 37 -17
17 -1 40 -4 52 -7 13 -2 25 0 29 6 4 7 9 7 13 -1 4 -6 36 -14 72 -17 37 -4 72
-13 83 -23 11 -9 16 -10 12 -3 -5 8 0 12 14 12 14 0 19 -4 14 -12 -6 -11 -4
-11 7 0 14 13 73 17 65 4 -3 -4 21 -6 52 -4 31 2 60 9 64 15 5 8 8 6 8 -4 0
-18 30 -21 42 -4 5 6 8 5 8 -3 0 -10 19 -13 75 -11 41 1 78 0 81 -4 3 -3 17
-3 31 -1 15 3 30 -1 34 -8 6 -9 9 -9 9 -1 0 8 9 9 30 3 17 -5 30 -6 30 -2 0 7
131 6 188 -1 17 -2 32 0 32 5 0 5 9 4 19 -2 14 -7 21 -6 24 3 4 9 8 9 15 -2 6
-9 11 -10 13 -2 3 8 14 8 36 2 19 -6 33 -6 35 0 2 5 15 5 33 0 17 -4 40 -4 53
0 12 5 22 4 22 0 0 -10 19 -9 36 2 6 3 14 3 18 0 10 -10 116 -9 116 1 0 5 6 4
13 0 6 -5 23 -8 37 -7 77 7 120 8 120 3 0 -4 24 -5 53 -3 64 4 68 5 87 2 37
-5 71 1 64 13 -5 7 -3 8 6 3 18 -11 143 -6 151 6 5 8 9 8 13 0 4 -6 12 -8 18
-5 5 3 33 8 61 10 29 2 71 5 94 7 24 2 46 6 49 10 3 3 12 3 20 0 8 -3 14 -1
14 4 0 6 13 9 30 8 19 -1 27 2 23 9 -5 8 -2 8 8 0 15 -12 49 -15 49 -4 0 3 19
7 43 8 23 1 58 4 77 7 19 3 45 6 58 7 12 0 22 3 22 7 0 4 10 8 23 9 12 1 51 6
87 12 36 6 85 13 110 15 24 3 47 9 50 14 3 4 17 7 33 6 15 -1 27 2 27 6 0 4 9
6 20 4 11 -2 20 -1 20 3 0 4 12 9 26 10 14 1 31 5 37 9 17 10 47 11 47 1 0 -5
5 -6 10 -3 6 4 8 11 4 16 -3 5 -2 9 3 8 25 -4 63 2 58 10 -3 5 -1 12 4 15 5 4
13 1 17 -5 5 -8 3 -9 -6 -4 -9 6 -11 4 -5 -5 6 -10 11 -9 22 5 9 14 13 15 13
4 1 -12 3 -12 13 1 13 17 25 19 45 7 7 -5 12 -4 12 3 0 5 13 9 28 8 15 -1 34
2 41 7 10 5 12 4 7 -3 -9 -16 -5 -15 31 3 17 9 34 23 37 31 5 13 9 14 21 4 12
-10 18 -10 30 0 12 10 15 10 15 -1 0 -11 2 -11 8 -1 5 7 23 14 40 15 18 1 32
6 32 11 0 5 8 2 17 -5 15 -12 16 -12 10 4 -6 15 -3 17 14 12 13 -4 19 -3 16 2
-7 11 23 10 41 -1 7 -4 16 -5 19 -2 4 3 1 6 -6 6 -7 0 -9 5 -6 10 4 6 10 8 15
5 5 -3 12 0 15 5 5 8 14 5 28 -7 21 -18 21 -18 7 1 -14 18 -13 19 8 14 14 -4
25 -1 31 9 5 10 15 14 25 10 11 -4 16 -1 16 11 0 15 2 15 10 2 8 -13 11 -13
19 -1 5 8 18 12 30 8 12 -3 19 -1 15 4 -3 5 9 9 25 9 17 0 31 5 31 11 0 8 6 7
17 -2 14 -12 16 -12 9 0 -6 9 -5 12 5 9 8 -3 20 1 27 9 8 7 18 11 23 8 5 -4 9
-1 9 4 0 6 5 11 11 11 5 0 8 -4 4 -9 -3 -5 -1 -13 5 -16 6 -4 10 -3 9 2 -4 21
2 47 9 38 9 -12 42 -16 42 -5 0 9 40 25 52 22 4 -1 5 5 2 13 -4 8 -2 15 4 15
6 0 12 -6 15 -12 3 -10 7 -10 19 -1 8 7 18 10 21 6 4 -3 7 -1 7 6 0 6 6 11 13
10 20 -2 57 13 52 21 -3 5 4 6 16 3 13 -4 25 1 34 14 10 15 22 19 41 15 20 -3
25 -2 19 7 -5 9 -1 12 11 10 11 -1 32 3 47 9 16 7 33 12 38 12 5 0 9 6 9 13 0
8 3 7 9 -3 6 -8 7 -19 3 -25 -3 -5 2 -4 11 4 9 7 17 19 17 25 0 6 -5 4 -11 -4
-9 -13 -10 -13 -6 0 4 17 35 20 56 5 12 -8 13 -6 8 9 -7 17 -6 17 10 5 15 -12
16 -12 10 5 -6 16 -5 17 8 6 13 -11 14 -10 10 3 -4 8 -1 18 6 23 8 4 10 3 5
-4 -4 -7 -3 -12 2 -12 6 0 13 8 16 17 6 14 9 15 15 4 6 -10 10 -9 14 3 5 14
54 41 65 36 2 -1 10 7 19 17 8 10 11 11 7 3 -6 -11 -2 -10 13 2 11 10 24 18
30 18 6 0 16 7 23 15 7 8 16 13 20 10 4 -3 19 4 34 16 14 11 36 22 48 24 13 3
24 9 26 15 2 5 10 10 18 10 21 0 64 30 64 45 0 6 9 20 20 30 11 10 20 14 20
10 0 -5 5 -4 12 3 7 7 21 12 32 12 10 0 16 3 13 7 -9 8 24 32 44 33 9 0 20 7
23 16 3 8 11 12 18 8 8 -5 9 0 5 17 -6 23 -6 23 9 4 9 -12 18 -16 22 -10 12
17 66 50 77 46 6 -1 7 1 3 5 -9 8 21 33 39 34 7 0 23 10 36 22 13 13 33 30 46
38 13 8 31 22 41 30 19 15 43 33 89 67 13 10 36 30 52 44 15 15 31 24 34 21 3
-3 5 0 5 6 0 7 8 12 17 12 9 0 13 3 10 6 -3 4 13 20 36 37 23 16 52 41 65 55
12 14 22 21 22 16 0 -4 7 2 16 14 8 12 22 22 30 22 8 0 13 5 12 12 -2 6 8 17
22 24 13 7 28 23 32 35 6 15 14 20 28 16 11 -3 18 -2 16 1 -5 10 20 32 28 25
3 -4 6 0 6 8 0 8 16 25 35 38 19 13 34 26 33 30 -2 18 4 22 17 11 18 -15 20 1
3 18 -9 9 -6 10 12 7 12 -2 20 -2 17 1 -3 3 2 14 11 24 12 15 19 17 29 8 10
-8 12 -7 8 5 -4 10 1 18 15 22 12 4 19 9 16 12 -7 7 14 27 37 36 10 4 16 11
12 16 -3 5 4 12 15 16 11 4 18 10 15 15 -3 5 4 11 15 15 11 3 20 13 20 21 0 8
6 14 13 14 6 0 21 14 32 30 11 16 26 30 34 30 8 0 11 7 8 19 -3 14 -1 18 9 14
8 -3 14 -1 14 5 0 5 18 28 40 51 23 23 38 46 35 51 -4 6 1 10 10 10 9 0 13 5
10 10 -3 6 4 14 17 19 13 6 20 10 16 10 -14 2 26 41 42 41 12 0 13 2 1 9 -11
7 -10 11 5 20 11 6 15 11 11 11 -4 0 -3 9 3 21 7 11 18 18 25 15 9 -3 12 0 8
10 -3 7 -2 14 1 14 4 0 10 -10 15 -22 8 -21 8 -21 13 5 3 17 1 25 -6 21 -6 -3
-3 1 6 9 10 8 15 17 11 20 -3 4 2 9 11 13 9 3 13 11 9 17 -4 7 0 8 12 4 14 -6
16 -3 12 12 -3 15 0 17 16 13 14 -3 18 -1 15 9 -3 8 -10 14 -15 14 -6 0 -14 3
-18 7 -9 9 17 5 33 -6 9 -5 15 -1 19 13 3 11 9 19 13 16 5 -3 11 4 15 15 3 11
10 20 15 20 5 0 12 10 16 23 4 12 17 32 30 43 12 12 20 25 17 28 -4 3 2 13 13
22 19 15 19 16 -1 10 -20 -6 -20 -6 -1 9 11 8 23 15 28 15 4 0 10 11 14 25 4
15 11 22 18 18 6 -3 3 3 -7 14 -14 16 -15 22 -5 26 10 4 10 8 -2 17 -12 9 -11
10 6 5 18 -4 21 -2 19 17 -1 13 -3 29 -4 36 0 7 -5 11 -10 8 -5 -3 -8 6 -8 19
0 14 3 25 7 25 3 0 7 7 7 15 0 8 -4 15 -9 15 -4 0 -8 7 -8 15 0 8 -5 15 -10
15 -6 0 -3 11 6 24 9 15 16 50 18 90 2 59 0 65 -16 60 -14 -4 -17 -1 -15 15 2
11 7 24 12 28 4 5 5 -2 2 -15 -4 -19 -3 -21 9 -12 10 10 11 17 2 33 -8 16 -8
22 1 25 14 5 15 32 1 32 -7 0 -7 6 0 19 5 11 12 46 15 78 3 32 7 67 8 78 1 12
-3 19 -11 17 -9 -2 -9 3 2 20 8 13 17 37 20 53 3 17 8 42 11 58 3 15 1 27 -5
27 -5 0 -10 5 -10 11 0 6 7 8 16 5 11 -4 15 -2 11 8 -3 8 -3 17 1 21 16 15 -3
59 -20 48 -4 -2 -5 3 -2 12 4 9 12 14 19 11 6 -2 18 0 26 5 10 6 10 9 2 9 -7
0 -13 5 -13 11 0 5 4 7 10 4 6 -4 7 1 3 10 -3 10 -1 20 5 24 7 4 13 19 14 34
1 15 5 27 9 27 3 0 6 6 7 13 0 6 4 23 8 36 6 21 5 23 -11 17 -13 -5 -11 1 8
18 16 15 24 31 21 40 -3 9 -1 16 6 16 6 0 8 5 5 10 -4 6 -11 7 -17 4 -7 -4 -8
-2 -4 4 4 7 15 12 24 13 11 0 12 3 5 6 -7 2 -13 9 -13 14 0 6 4 8 9 5 14 -9
21 20 8 34 -9 10 -9 11 1 5 9 -5 12 -1 10 11 -2 12 2 18 11 16 12 -3 12 -1 0
14 -8 10 -9 15 -3 11 7 -4 14 0 18 8 3 8 0 15 -6 15 -7 0 -3 7 8 15 10 8 15
15 10 15 -5 0 -3 7 4 15 6 8 9 18 6 24 -3 5 0 11 8 14 8 3 13 16 12 31 -2 14
0 23 4 21 4 -3 10 3 12 13 3 9 6 20 7 24 1 4 8 23 16 42 8 18 11 37 7 41 -4 5
-2 5 5 1 18 -10 27 32 11 52 -11 15 -11 16 3 4 14 -10 18 -10 23 4 3 9 4 20 0
25 -3 5 2 9 10 9 9 0 15 3 14 8 -1 4 3 17 10 29 7 13 10 23 6 23 -3 0 -1 7 6
15 11 13 10 14 -5 8 -15 -5 -15 -3 3 15 12 12 22 29 22 38 0 14 3 14 16 4 8
-8 14 -9 13 -4 -4 13 24 84 33 84 4 0 8 9 8 21 0 11 4 18 9 15 5 -3 12 1 15
10 9 23 8 26 -6 19 -7 -4 -5 0 4 8 10 8 14 18 10 22 -4 5 1 5 10 2 21 -8 20
12 -2 31 -9 8 -9 11 -2 7 8 -4 20 1 28 11 9 11 13 13 9 4 -4 -8 3 -4 14 9 12
12 18 28 14 34 -3 5 -1 7 5 3 6 -3 13 3 17 14 3 11 10 20 15 20 5 0 14 16 20
36 7 19 15 33 18 30 5 -6 37 33 37 47 0 4 6 12 14 17 8 5 22 23 31 42 9 18 22
32 29 30 8 -2 11 3 8 12 -4 9 1 17 14 21 16 5 17 10 8 27 -8 15 -8 19 0 14 6
-4 14 0 17 8 3 9 10 13 15 10 5 -3 6 1 3 9 -3 8 2 17 10 20 9 4 16 13 16 22 0
8 4 15 9 15 5 0 11 9 14 20 3 13 1 18 -6 14 -7 -4 2 6 19 22 17 16 30 37 29
47 -2 9 1 15 6 11 5 -3 9 4 9 16 0 12 4 19 9 16 4 -3 13 6 19 19 7 14 16 25
22 25 5 0 10 6 10 13 0 7 8 20 18 29 33 31 44 49 39 63 -3 7 3 29 13 49 10 20
14 36 8 36 -8 0 -5 59 4 63 30 15 42 27 45 46 2 18 -1 22 -12 17 -9 -3 -14 -2
-10 3 11 19 -26 41 -65 39 -22 -1 -37 -4 -35 -8 2 -4 -2 -7 -10 -7 -8 0 -15 4
-15 9 0 5 -4 6 -10 3 -5 -3 -10 0 -10 7 0 7 -9 19 -21 26 -12 7 -18 16 -15 19
3 3 -1 12 -9 20 -8 8 -16 23 -16 34 -1 10 -2 22 -3 27 -1 4 -6 23 -10 42 -5
19 -12 40 -16 45 -5 6 -9 15 -9 20 -2 21 -35 100 -45 107 -6 4 -15 4 -21 0 -5
-3 -4 2 4 11 11 14 11 20 0 34 -8 9 -13 24 -11 35 2 10 -2 18 -7 18 -6 0 -10
3 -9 8 4 15 -14 72 -22 72 -5 0 -7 9 -5 20 2 11 0 20 -5 20 -4 0 -7 8 -5 18 1
9 -4 29 -12 45 -7 15 -11 27 -7 27 4 0 1 7 -6 15 -6 8 -9 19 -5 25 3 5 -2 10
-13 10 -11 0 -25 6 -31 13 -8 10 -7 14 4 14 8 0 12 -4 9 -9 -3 -4 -1 -8 3 -8
5 0 9 20 9 45 0 25 -3 45 -6 45 -3 0 -5 18 -5 39 0 24 -3 37 -10 33 -5 -3 -4
2 4 11 9 11 10 17 2 17 -6 0 -11 17 -12 38 0 20 -4 46 -8 57 -5 11 -4 28 1 39
7 13 7 16 -1 12 -7 -4 -11 2 -11 16 0 13 0 34 -1 48 0 13 -5 30 -11 37 -7 9
-7 13 0 13 11 0 10 25 -1 36 -10 10 -9 26 1 20 5 -3 7 5 6 17 -4 33 -4 33 -13
19 -7 -11 -9 -10 -14 3 -4 9 -3 14 2 11 5 -3 14 8 20 24 7 21 7 30 -1 30 -5 0
-8 7 -5 15 4 8 1 17 -5 21 -6 4 -9 3 -6 -2 3 -5 2 -18 -3 -29 -7 -17 -8 -16
-8 8 -1 16 5 30 14 33 8 4 12 10 9 15 -3 6 0 17 8 26 11 14 11 16 -2 8 -13 -8
-13 -7 -1 8 11 14 11 17 0 17 -11 0 -11 2 1 10 11 7 11 10 2 10 -8 0 -10 5 -5
13 11 17 11 77 0 77 -5 0 -4 7 3 15 10 12 10 15 -1 15 -11 0 -11 2 1 10 8 5
10 10 4 10 -17 0 -25 28 -12 36 7 5 8 2 3 -7 -5 -8 -4 -11 0 -6 13 11 13 47 1
47 -6 0 -4 5 6 10 10 6 14 18 11 30 -4 14 -9 17 -17 11 -8 -7 -12 -4 -12 8 0
10 5 17 11 14 12 -4 18 40 17 120 0 21 4 37 11 37 8 0 8 3 0 11 -8 8 -8 20 -3
35 6 15 6 24 0 24 -6 0 -10 7 -10 16 0 9 5 12 13 8 9 -6 9 -5 0 7 -7 9 -8 20
-3 28 4 8 6 20 3 28 -3 7 -1 13 5 13 5 0 6 16 2 40 -4 22 -4 40 0 40 4 0 6 12
5 28 -1 17 -7 26 -16 24 -9 -1 -6 4 6 15 14 12 20 31 20 58 0 22 3 52 6 66 4
14 2 33 -3 42 -6 12 -5 17 3 17 6 0 9 8 6 20 -3 11 -1 23 5 26 6 4 5 9 -3 14
-9 6 -10 13 -3 22 14 19 18 72 5 63 -7 -4 -10 -1 -9 7 2 7 -3 12 -10 10 -8 -1
-11 2 -7 8 5 8 11 7 21 -1 13 -10 18 -6 15 13 0 4 4 19 9 32 6 17 6 27 -1 32
-8 4 -7 9 1 14 7 4 13 26 13 49 0 22 5 41 10 41 4 0 1 7 -7 16 -14 13 -14 18
-1 37 13 21 17 35 30 121 5 30 4 37 -7 30 -7 -4 -5 2 5 13 9 11 17 24 17 29 0
5 -5 2 -10 -6 -5 -8 -10 -10 -10 -4 0 6 3 14 8 18 12 13 10 136 -2 129 -6 -4
-5 1 3 10 9 12 10 17 2 17 -7 0 -10 4 -7 9 8 13 -14 72 -25 65 -5 -3 -9 1 -9
9 0 20 -23 27 -93 33 -62 5 -141 -11 -132 -26 3 -5 0 -12 -6 -16 -7 -4 -9 -3
-6 3 4 6 1 16 -7 22 -11 9 -14 8 -12 -6 0 -11 -5 -17 -13 -15 -12 3 -12 0 -2
-12 10 -12 9 -14 -9 -9 -11 3 -18 8 -15 11 3 3 -1 15 -9 28 -8 12 -12 25 -9
28 16 15 10 34 -8 31 -13 -3 -17 0 -12 8 10 16 13 37 5 36 -25 -4 -34 3 -29
21 4 14 0 20 -11 21 -10 0 -12 3 -5 6 10 3 10 7 0 18 -7 7 -16 10 -21 7 -5 -3
-7 2 -3 11 4 11 1 17 -8 17 -18 0 -20 26 -2 33 6 3 1 6 -12 6 -21 1 -22 3 -10
19 7 9 10 14 5 10 -4 -4 -18 3 -31 15 -17 16 -20 27 -13 40 6 12 5 16 -3 15
-11 -3 -40 40 -75 110 -9 17 -20 32 -25 32 -5 0 -9 9 -9 19 0 11 -4 21 -8 23
-4 2 -22 27 -40 56 -18 30 -37 59 -43 65 -8 10 -112 166 -144 216 -5 9 -18 23
-27 32 -10 9 -18 20 -18 24 0 5 -11 23 -26 42 -14 18 -23 33 -20 33 3 0 -5 10
-17 23 -33 35 -58 67 -51 67 3 0 -1 6 -8 14 -7 7 -20 24 -28 36 -8 13 -25 32
-37 43 -12 11 -20 24 -17 29 3 4 1 8 -3 8 -5 0 -16 12 -25 28 -9 15 -25 36
-35 48 -10 12 -36 42 -58 68 -64 76 -125 144 -197 220 -37 39 -68 74 -68 79 0
4 -7 7 -15 7 -8 0 -14 3 -13 8 3 9 -19 35 -104 125 -38 39 -68 75 -68 79 0 4
-7 8 -15 8 -14 0 -20 13 -15 35 1 5 -1 7 -5 3 -8 -8 -51 33 -47 45 1 5 -2 6
-8 2 -5 -3 -21 5 -35 19 -14 15 -30 26 -35 26 -6 0 -10 7 -10 16 0 8 -4 13 -9
9 -5 -3 -18 6 -29 20 -11 14 -24 25 -29 25 -4 0 -14 9 -21 20 -7 12 -17 18
-22 15 -6 -3 -10 1 -10 9 0 9 -5 16 -10 16 -12 0 -28 12 -71 53 -15 15 -32 27
-38 27 -5 0 -12 7 -15 16 -4 9 -9 14 -12 11 -8 -8 -34 18 -34 33 0 6 -4 8 -10
5 -5 -3 -10 -1 -10 4 0 6 -6 11 -13 11 -7 0 -19 9 -27 20 -8 11 -20 20 -28 20
-7 0 -15 7 -18 15 -4 8 -10 15 -15 15 -5 0 -17 8 -27 18 -10 9 -33 28 -52 42
-18 14 -38 30 -44 35 -6 6 -32 26 -58 44 -26 19 -45 38 -42 42 3 5 -1 6 -9 3
-15 -5 -79 49 -71 60 2 3 1 4 -2 1 -8 -5 -63 24 -84 45 -8 8 -22 16 -30 18 -8
2 -30 15 -47 28 -18 14 -33 22 -33 19 0 -3 -6 0 -14 7 -8 7 -12 16 -10 20 3 4
-5 5 -16 3 -11 -2 -20 1 -20 6 0 6 -4 8 -9 4 -5 -3 -16 3 -23 14 -7 10 -22 20
-33 23 -12 2 -19 10 -17 21 2 9 -2 17 -8 17 -6 0 -8 -4 -5 -10 7 -12 -8 -14
-19 -2 -4 4 -12 8 -17 8 -5 1 -13 2 -19 3 -5 0 -10 11 -10 24 0 14 -3 18 -8
10 -6 -9 -13 -6 -25 11 -13 17 -25 22 -45 19 -21 -4 -24 -2 -12 6 13 9 12 11
-3 11 -10 0 -16 4 -12 9 3 5 0 13 -6 17 -7 4 -9 3 -6 -2 3 -6 2 -16 -4 -24 -7
-12 -9 -12 -9 4 0 16 -2 16 -16 6 -8 -8 -14 -9 -12 -4 4 12 -38 54 -46 46 -3
-3 -18 5 -33 19 -14 13 -23 18 -19 12 5 -9 2 -11 -8 -7 -9 3 -13 10 -10 15 3
5 -4 9 -15 9 -13 0 -21 7 -22 18 0 10 -3 12 -6 5 -3 -9 -17 -6 -48 11 -24 14
-46 22 -49 19 -3 -4 -6 -2 -6 4 0 6 -11 14 -25 17 -15 4 -23 11 -19 17 4 7 -1
9 -15 4 -12 -3 -21 -2 -21 4 0 5 -10 11 -22 13 -13 2 -22 9 -21 15 2 7 -6 10
-17 8 -23 -4 -53 22 -46 40 3 8 -2 16 -9 19 -11 4 -12 0 -5 -20 10 -24 9 -24
-19 -9 -23 11 -31 12 -34 2 -3 -6 -6 -2 -6 11 -1 12 -6 22 -12 22 -5 0 -7 -4
-4 -10 4 -6 -2 -7 -17 -1 -13 5 -22 15 -20 23 3 10 1 10 -9 1 -11 -11 -16 -10
-58 14 -2 2 2 11 10 20 13 16 12 17 -3 4 -15 -11 -25 -11 -63 0 -25 7 -45 17
-45 22 0 4 -4 6 -9 2 -5 -3 -12 -1 -16 5 -4 6 -11 8 -16 5 -5 -4 -9 0 -9 7 0
9 -3 9 -10 -2 -6 -10 -10 -11 -10 -2 0 6 -7 12 -16 12 -9 0 -12 5 -8 13 5 8 2
8 -9 -2 -11 -9 -17 -10 -17 -2 0 6 -3 10 -7 10 -5 -1 -10 0 -13 1 -38 15 -111
27 -116 19 -3 -5 -11 -9 -17 -8 -9 0 -9 2 1 6 6 2 12 9 12 15 0 6 -7 8 -15 5
-8 -4 -17 -1 -21 4 -3 6 -15 9 -25 6 -11 -3 -17 -2 -14 2 4 8 -113 42 -152 45
-13 0 -23 4 -23 9 0 4 -11 5 -25 3 -14 -3 -25 0 -25 5 0 6 -15 10 -32 9 -18
-1 -36 -1 -40 0 -5 1 -17 3 -27 4 -11 0 -23 5 -28 10 -5 5 -2 6 6 1 9 -5 12
-4 8 2 -7 11 -36 11 -55 -1 -6 -4 -12 -3 -12 3 0 5 -8 9 -17 9 -10 -1 -29 2
-42 6 -16 6 -21 5 -17 -3 4 -5 -6 -4 -21 4 -16 9 -29 11 -31 5 -2 -6 -15 -4
-32 5 -15 8 -30 12 -33 9 -10 -11 -47 7 -40 19 4 8 1 7 -9 -1 -11 -9 -18 -10
-23 -2 -4 7 -12 7 -26 0 -12 -7 -19 -7 -19 -1 0 6 -16 9 -36 7 -19 -1 -37 1
-40 5 -3 5 -16 4 -29 -1 -20 -8 -29 -5 -46 13 -14 15 -18 17 -14 5z m-557
-126 c9 7 6 -1 -7 -19 -12 -18 -25 -33 -28 -33 -3 0 0 6 6 14 6 7 10 20 8 27
-2 8 -2 10 1 6 2 -4 11 -2 20 5z m-1214 -23 c-3 -5 -10 -7 -15 -3 -5 3 -7 10
-3 15 3 5 10 7 15 3 5 -3 7 -10 3 -15z m1876 5 c0 -8 -19 -13 -24 -6 -3 5 1 9
9 9 8 0 15 -2 15 -3z m-1094 -22 c0 -23 -31 -26 -48 -4 -7 9 -8 13 -3 10 7 -4
47 5 50 11 1 1 1 -7 1 -17z m154 3 c-10 -12 -10 -15 0 -15 8 0 11 -2 8 -5 -3
-3 -13 -3 -22 1 -15 6 -15 7 1 20 24 18 28 17 13 -1z m315 -5 c-3 -5 -12 -10
-18 -10 -7 0 -6 4 3 10 19 12 23 12 15 0z m-748 -35 c0 -8 -4 -12 -9 -9 -5 3
-6 10 -3 15 9 13 12 11 12 -6z m-212 -45 c3 -6 -1 -7 -9 -4 -18 7 -21 14 -7
14 6 0 13 -4 16 -10z m435 6 c0 -2 -7 -7 -16 -10 -8 -3 -12 -2 -9 4 6 10 25
14 25 6z m1760 -6 c0 -5 -2 -10 -4 -10 -3 0 -8 5 -11 10 -3 6 -1 10 4 10 6 0
11 -4 11 -10z m-2389 -23 c-10 -9 -11 -8 -5 6 3 10 9 15 12 12 3 -3 0 -11 -7
-18z m-428 -62 c-3 -9 -8 -14 -10 -11 -3 3 -2 9 2 15 9 16 15 13 8 -4z m20
-19 c-10 -13 -20 -22 -22 -20 -4 4 29 44 36 44 2 0 -4 -11 -14 -24z m-105 -17
c-3 -8 -7 -3 -11 10 -4 17 -3 21 5 13 5 -5 8 -16 6 -23z m65 4 c-7 -2 -19 -2
-25 0 -7 3 -2 5 12 5 14 0 19 -2 13 -5z m-306 -48 c0 -8 -4 -12 -9 -9 -5 3 -6
10 -3 15 9 13 12 11 12 -6z m-92 -15 c3 -6 -1 -7 -9 -4 -18 7 -21 14 -7 14 6
0 13 -4 16 -10z m-905 -70 c0 -5 -5 -10 -11 -10 -5 0 -7 5 -4 10 3 6 8 10 11
10 2 0 4 -4 4 -10z m-260 -30 c0 -5 -7 -7 -15 -4 -8 4 -12 10 -9 15 6 11 24 2
24 -11z m-514 -194 c1 -9 -5 -12 -17 -9 -15 4 -17 8 -8 19 13 16 22 12 25 -10z
m-542 -72 c3 -8 2 -12 -4 -9 -6 3 -10 10 -10 16 0 14 7 11 14 -7z m170 -60 c3
-8 2 -12 -4 -9 -6 3 -10 10 -10 16 0 14 7 11 14 -7z m6832 -46 l19 -21 -27 18
c-29 18 -34 25 -20 25 5 0 17 -10 28 -22z m109 -68 c3 -5 1 -10 -4 -10 -6 0
-11 5 -11 10 0 6 2 10 4 10 3 0 8 -4 11 -10z m-7983 -711 c2 -2 1 -3 -1 -2 -2
2 -10 -5 -18 -15 -12 -16 -13 -15 -6 3 6 18 5 19 -13 5 -17 -14 -18 -14 -6 2
12 14 37 19 44 7z m-519 -530 c-8 -8 -13 -7 -18 2 -5 8 -4 10 3 5 7 -4 12 -2
12 5 0 7 3 9 7 6 4 -4 2 -12 -4 -18z m-885 -1194 c-3 -3 -9 2 -12 12 -6 14 -5
15 5 6 7 -7 10 -15 7 -18z m12109 -515 c1 -11 -2 -18 -8 -15 -11 7 -12 35 -1
35 4 0 8 -9 9 -20z m-12465 -224 c5 3 4 -3 -4 -15 -7 -12 -17 -21 -22 -21 -6
0 -5 5 1 11 6 6 10 17 9 23 -2 6 -1 8 1 3 3 -4 9 -4 15 -1z m12428 -46 c0 -5
-5 -10 -11 -10 -5 0 -7 5 -4 10 3 6 8 10 11 10 2 0 4 -4 4 -10z m-40 -205 c0
-3 -4 -4 -9 -1 -4 3 -13 -6 -20 -20 -6 -14 -16 -22 -22 -19 -7 5 -4 14 8 27
10 11 17 22 16 24 -10 15 0 23 12 10 8 -8 15 -17 15 -21z m-60 -55 c0 -5 -2
-10 -4 -10 -3 0 -8 5 -11 10 -3 6 -1 10 4 10 6 0 11 -4 11 -10z m-12440 -20
c0 -5 -2 -10 -4 -10 -3 0 -8 5 -11 10 -3 6 -1 10 4 10 6 0 11 -4 11 -10z
m12440 -175 c-10 -12 -10 -15 0 -15 8 0 11 -3 7 -6 -3 -3 -11 -3 -17 1 -8 5
-8 11 1 21 6 8 14 14 16 14 3 0 0 -7 -7 -15z m-12469 -58 c-10 -9 -11 -8 -5 6
3 10 9 15 12 12 3 -3 0 -11 -7 -18z m12500 -194 c-12 -20 -14 -14 -5 12 4 9 9
14 11 11 3 -2 0 -13 -6 -23z m-12616 -253 c3 -5 1 -10 -4 -10 -6 0 -11 5 -11
10 0 6 2 10 4 10 3 0 8 -4 11 -10z m12615 -595 c0 -5 -5 -3 -10 5 -5 8 -10 20
-10 25 0 6 5 3 10 -5 5 -8 10 -19 10 -25z m86 -470 c-3 -20 -16 -31 -16 -13 0
13 8 28 16 28 1 0 1 -7 0 -15z m-12639 -180 c0 -8 -4 -12 -9 -9 -5 3 -6 10 -3
15 9 13 12 11 12 -6z m-2 -35 c3 -5 1 -10 -4 -10 -6 0 -11 5 -11 10 0 6 2 10
4 10 3 0 8 -4 11 -10z m12725 -21 c0 -6 -4 -7 -10 -4 -5 3 -10 11 -10 16 0 6
5 7 10 4 6 -3 10 -11 10 -16z m-12705 -139 c-3 -5 -14 -10 -23 -9 -14 0 -13 2
3 9 27 11 27 11 20 0z m12700 -179 c3 -5 2 -12 -3 -15 -5 -3 -9 1 -9 9 0 17 3
19 12 6z m-13 -48 c-6 -3 -9 -10 -6 -15 4 -7 2 -8 -5 -4 -9 6 -9 11 0 22 6 8
15 12 18 8 3 -4 0 -9 -7 -11z m48 -13 c13 -8 13 -10 -2 -10 -9 0 -20 5 -23 10
-8 13 5 13 25 0z m27 -22 c-3 -8 -6 -5 -6 6 -1 11 2 17 5 13 3 -3 4 -12 1 -19z
m-57 2 c0 -5 -5 -10 -11 -10 -5 0 -7 5 -4 10 3 6 8 10 11 10 2 0 4 -4 4 -10z
m-12679 -77 c13 -16 12 -17 -3 -4 -17 13 -22 21 -14 21 2 0 10 -8 17 -17z
m12809 -44 c0 -5 -4 -9 -8 -9 -5 0 -9 7 -9 15 0 8 4 12 9 9 4 -3 8 -9 8 -15z
m-44 -8 c-9 -8 -18 -12 -22 -9 -9 10 3 25 21 25 14 0 14 -2 1 -16z m-16 -27
c0 -8 -19 -13 -24 -6 -3 5 1 9 9 9 8 0 15 -2 15 -3z m-10 -28 c0 -2 -8 -10
-17 -17 -16 -13 -17 -12 -4 4 13 16 21 21 21 13z m-12734 -702 c1 -9 0 -13 -4
-10 -3 4 -7 14 -8 22 -1 9 0 13 4 10 3 -4 7 -14 8 -22z m12371 -97 c0 -8 -6
-14 -14 -14 -17 0 -17 14 0 20 6 3 12 6 13 6 0 1 1 -5 1 -12z m-44 -32 c-3 -9
-8 -14 -10 -11 -3 3 -2 9 2 15 9 16 15 13 8 -4z m-12136 -420 c0 -8 -4 -12 -9
-9 -4 3 -8 0 -8 -7 0 -7 -3 -9 -6 -6 -4 4 -1 13 6 22 15 19 17 19 17 0z m0
-52 c1 -22 -1 -24 -8 -10 -6 9 -7 22 -4 27 9 14 10 13 12 -17z m43 11 c0 -8
-19 -13 -24 -6 -3 5 1 9 9 9 8 0 15 -2 15 -3z m37 -100 c-3 -3 -12 -4 -19 -1
-8 3 -5 6 6 6 11 1 17 -2 13 -5z m-28 -27 c3 6 14 7 26 2 19 -7 19 -8 -3 -8
-13 -1 -20 -5 -17 -11 4 -6 10 -8 15 -5 5 3 11 1 14 -4 4 -5 1 -13 -5 -17 -8
-5 -9 -3 -4 6 5 9 4 11 -4 6 -16 -10 -4 -26 15 -19 9 3 14 0 12 -8 -2 -8 3
-13 11 -11 11 2 12 0 3 -11 -7 -8 -24 -13 -39 -11 -39 3 -38 3 -25 16 17 17
15 31 -4 24 -15 -6 -15 -4 -3 10 11 14 11 18 -2 28 -9 6 -13 18 -10 26 4 12 6
11 9 -4 2 -10 7 -14 11 -9z m11859 9 c-7 -8 -15 -12 -17 -11 -5 6 10 25 20 25
5 0 4 -6 -3 -14z m-58 -180 c0 -2 -7 -7 -16 -10 -8 -3 -12 -2 -9 4 6 10 25 14
25 6z m-11523 -421 c-15 -16 -19 -13 -11 9 3 9 10 13 15 10 5 -3 3 -11 -4 -19z
m8 -25 c-3 -5 -14 -10 -23 -9 -14 0 -13 2 3 9 27 11 27 11 20 0z m25 -40 c0
-5 -7 -7 -15 -4 -8 4 -15 8 -15 10 0 2 7 4 15 4 8 0 15 -4 15 -10z m-12 -35
c-3 -3 -9 2 -12 12 -6 14 -5 15 5 6 7 -7 10 -15 7 -18z m26 -20 c-4 -8 -11
-12 -16 -9 -6 4 -5 10 3 15 19 12 19 11 13 -6z m11191 -485 c-3 -5 -12 -10
-18 -10 -7 0 -6 4 3 10 19 12 23 12 15 0z m-10 -99 c-9 -8 -36 -10 -30 -2 2 4
11 8 20 8 8 0 13 -3 10 -6z m-20 -49 c-3 -3 -11 0 -18 7 -9 10 -8 11 6 5 10
-3 15 -9 12 -12z m-2 -67 c-7 -21 -12 -19 -10 4 0 11 5 18 9 15 4 -3 5 -11 1
-19z m14 -27 c-3 -8 -6 -5 -6 6 -1 11 2 17 5 13 3 -3 4 -12 1 -19z m-10617
-134 c0 -8 -19 -13 -24 -6 -3 5 1 9 9 9 8 0 15 -2 15 -3z m10610 -58 c0 -3 -4
-8 -10 -11 -5 -3 -10 -1 -10 4 0 6 5 11 10 11 6 0 10 -2 10 -4z m-100 -120 c0
-2 -8 -10 -17 -17 -16 -13 -17 -12 -4 4 13 16 21 21 21 13z m-10400 -126 c0
-5 -5 -10 -11 -10 -5 0 -7 5 -4 10 3 6 8 10 11 10 2 0 4 -4 4 -10z m20 -20 c0
-5 -5 -10 -11 -10 -5 0 -7 5 -4 10 3 6 8 10 11 10 2 0 4 -4 4 -10z m20 -52 c0
-4 -6 -10 -12 -14 -7 -4 -10 -3 -5 1 4 5 -1 17 -10 28 -18 19 -17 19 5 6 12
-8 22 -17 22 -21z m30 -48 c12 -7 10 -9 -8 -7 -12 0 -22 5 -22 9 0 11 12 10
30 -2z m10 -24 c0 -3 -4 -8 -10 -11 -5 -3 -10 -1 -10 4 0 6 5 11 10 11 6 0 10
-2 10 -4z m17 -26 c1 -11 -2 -20 -8 -20 -10 0 -12 23 -2 33 9 9 9 10 10 -13z
m76 -25 c-3 -9 -8 -14 -10 -11 -3 3 -2 9 2 15 9 16 15 13 8 -4z m-53 -5 c0 -5
8 -10 18 -10 13 0 14 -2 3 -9 -11 -7 -10 -11 5 -20 17 -9 17 -10 2 -11 -9 0
-20 9 -23 20 -3 11 -13 20 -21 20 -8 0 -12 5 -9 10 3 6 10 10 16 10 5 0 9 -4
9 -10z m115 -39 c-9 -8 -36 -10 -30 -2 2 4 11 8 20 8 8 0 13 -3 10 -6z m22
-30 c2 -29 -21 -45 -46 -31 -23 12 -27 25 -11 35 6 4 7 -1 3 -12 -5 -14 -2
-14 16 5 27 27 36 28 38 3z m13 -52 c0 -5 -7 -9 -15 -9 -15 0 -20 12 -9 23 8
8 24 -1 24 -14z m27 8 c-5 -13 5 -17 48 -18 15 0 16 -2 6 -8 -7 -5 -11 -13 -8
-18 3 -5 -1 -10 -9 -10 -8 0 -13 6 -10 12 3 8 -4 10 -20 7 -21 -4 -24 -1 -22
22 1 14 6 26 11 26 5 0 7 -6 4 -13z m93 -47 c1 12 3 12 11 -2 5 -10 16 -15 24
-12 8 4 15 2 15 -4 0 -6 -10 -9 -22 -7 -36 4 -58 16 -52 27 4 6 10 5 15 -3 7
-12 9 -11 9 1z m386 -126 c18 -15 18 -15 -2 -5 -12 6 -24 7 -28 4 -3 -3 -6 -1
-6 5 0 16 12 15 36 -4z m8380 -436 c4 -7 4 -10 -1 -6 -4 4 -15 2 -24 -5 -14
-11 -14 -10 -2 6 16 20 18 21 27 5z m174 -28 c-9 -17 -39 -46 -41 -39 -8 39
-7 40 9 27 13 -11 15 -11 10 4 -8 19 -4 25 16 25 11 0 12 -5 6 -17z m-318 -85
c19 0 14 -11 -6 -11 -12 0 -23 6 -23 13 0 6 5 9 11 5 6 -4 14 -7 18 -7z
m-7855 -32 c-4 -3 -1 -13 6 -22 10 -14 10 -14 -4 -4 -9 7 -20 9 -25 5 -4 -4
-2 1 5 11 7 9 16 17 19 17 3 0 2 -3 -1 -7z m1137 -728 c-4 -8 -11 -12 -16 -9
-6 4 -5 10 3 15 19 12 19 11 13 -6z m42 -20 c2 -11 -2 -12 -17 -2 -13 8 -15
13 -6 19 13 8 20 3 23 -17z m5224 -65 c0 -5 -2 -10 -4 -10 -3 0 -8 5 -11 10
-3 6 -1 10 4 10 6 0 11 -4 11 -10z m-1530 -320 c0 -5 -2 -10 -4 -10 -3 0 -8 5
-11 10 -3 6 -1 10 4 10 6 0 11 -4 11 -10z m-23 -16 c-3 -3 -12 -4 -19 -1 -8 3
-5 6 6 6 11 1 17 -2 13 -5z"/>
<path d="M786 4632 c-3 -5 1 -9 9 -9 8 0 15 4 15 9 0 4 -4 8 -9 8 -6 0 -12 -4
-15 -8z"/>
<path d="M9395 12850 c3 -5 8 -10 11 -10 2 0 4 5 4 10 0 6 -5 10 -11 10 -5 0
-7 -4 -4 -10z"/>
<path d="M9470 12850 c0 -5 5 -10 11 -10 5 0 7 5 4 10 -3 6 -8 10 -11 10 -2 0
-4 -4 -4 -10z"/>
<path d="M5110 12816 c0 -2 7 -7 16 -10 8 -3 12 -2 9 4 -6 10 -25 14 -25 6z"/>
<path d="M9736 12717 c3 -10 9 -15 12 -12 3 3 0 11 -7 18 -10 9 -11 8 -5 -6z"/>
<path d="M4500 12670 c-12 -7 -10 -9 8 -7 12 0 22 5 22 9 0 11 -12 10 -30 -2z"/>
<path d="M4420 12656 c0 -2 7 -6 15 -10 8 -3 15 -1 15 4 0 6 -7 10 -15 10 -8
0 -15 -2 -15 -4z"/>
<path d="M4050 12570 c0 -5 5 -10 11 -10 5 0 7 5 4 10 -3 6 -8 10 -11 10 -2 0
-4 -4 -4 -10z"/>
<path d="M4100 12575 c0 -2 6 -8 13 -14 10 -8 14 -7 14 2 0 8 -6 14 -14 14 -7
0 -13 -1 -13 -2z"/>
<path d="M3996 12548 c3 -5 10 -6 15 -3 13 9 11 12 -6 12 -8 0 -12 -4 -9 -9z"/>
<path d="M10095 12530 c3 -5 8 -10 11 -10 2 0 4 5 4 10 0 6 -5 10 -11 10 -5 0
-7 -4 -4 -10z"/>
<path d="M2186 11283 c-6 -14 -5 -15 5 -6 7 7 10 15 7 18 -3 3 -9 -2 -12 -12z"/>
<path d="M12820 9616 c0 -2 8 -10 18 -17 15 -13 16 -12 3 4 -13 16 -21 21 -21
13z"/>
<path d="M416 8104 c-4 -9 -4 -19 -1 -22 2 -3 7 3 11 12 4 9 4 19 1 22 -2 3
-7 -3 -11 -12z"/>
<path d="M390 5956 c0 -2 7 -7 16 -10 8 -3 12 -2 9 4 -6 10 -25 14 -25 6z"/>
<path d="M436 5773 c-6 -14 -5 -15 5 -6 7 7 10 15 7 18 -3 3 -9 -2 -12 -12z"/>
<path d="M450 5716 c0 -2 7 -7 16 -10 8 -3 12 -2 9 4 -6 10 -25 14 -25 6z"/>
<path d="M457 5689 c7 -7 15 -10 18 -7 3 3 -2 9 -12 12 -14 6 -15 5 -6 -5z"/>
<path d="M479 5623 c-13 -16 -12 -17 4 -4 9 7 17 15 17 17 0 8 -8 3 -21 -13z"/>
<path d="M505 5550 c-3 -6 1 -7 9 -4 18 7 21 14 7 14 -6 0 -13 -4 -16 -10z"/>
<path d="M543 5357 c4 -10 2 -17 -5 -17 -6 0 -9 -3 -5 -6 3 -3 12 -2 20 3 13
7 13 10 -1 23 -14 13 -15 12 -9 -3z"/>
<path d="M630 5112 c0 -5 7 -9 15 -9 8 0 12 4 9 9 -3 4 -9 8 -15 8 -5 0 -9 -4
-9 -8z"/>
<path d="M635 5050 c3 -5 8 -10 11 -10 2 0 4 5 4 10 0 6 -5 10 -11 10 -5 0 -7
-4 -4 -10z"/>
<path d="M685 4910 c-3 -5 -3 -10 2 -11 4 0 -1 -4 -12 -9 -17 -7 -17 -9 -3 -9
10 -1 22 8 28 19 11 20 -3 30 -15 10z"/>
<path d="M730 4752 c0 -5 7 -9 15 -9 8 0 12 4 9 9 -3 4 -9 8 -15 8 -5 0 -9 -4
-9 -8z"/>
<path d="M869 4460 c-22 -18 -22 -19 -5 -20 11 0 16 3 13 7 -4 3 1 12 11 19 9
7 14 14 11 14 -4 0 -17 -9 -30 -20z"/>
<path d="M867 4389 c7 -7 15 -10 18 -7 3 3 -2 9 -12 12 -14 6 -15 5 -6 -5z"/>
<path d="M883 4349 c9 -6 14 -15 11 -21 -4 -6 -2 -8 4 -4 6 3 13 2 17 -3 3 -6
13 -7 23 -4 15 6 16 5 2 -13 -8 -10 -10 -16 -6 -12 5 4 15 0 22 -10 9 -13 9
-19 1 -24 -9 -6 -8 -10 2 -17 11 -7 11 -9 0 -14 -8 -3 -4 -5 8 -3 12 1 26 6
30 10 5 4 1 6 -7 4 -11 -2 -15 5 -15 26 0 16 -6 31 -13 34 -6 2 -10 7 -7 12 2
4 -5 16 -16 26 -19 17 -20 17 -13 -2 7 -17 5 -17 -18 4 -13 12 -28 22 -34 22
-5 0 -1 -5 9 -11z"/>
<path d="M925 4270 c-3 -5 -1 -10 4 -10 6 0 11 5 11 10 0 6 -2 10 -4 10 -3 0
-8 -4 -11 -10z"/>
<path d="M956 4163 c-6 -14 -5 -15 5 -6 7 7 10 15 7 18 -3 3 -9 -2 -12 -12z"/>
<path d="M1126 3879 c3 -5 10 -7 15 -4 5 4 9 -3 9 -15 0 -12 5 -18 10 -15 14
9 -3 38 -24 41 -9 1 -14 -2 -10 -7z"/>
<path d="M1173 3857 c0 -13 5 -24 11 -24 15 0 14 39 -1 44 -6 2 -10 -7 -10
-20z"/>
<path d="M1152 3788 c2 -6 10 -13 16 -14 7 -1 8 0 2 3 -5 2 -8 9 -4 14 3 5 0
9 -6 9 -7 0 -10 -5 -8 -12z"/>
<path d="M1231 3760 c0 -8 4 -22 9 -30 12 -18 12 -2 0 25 -6 13 -9 15 -9 5z"/>
<path d="M1253 3708 c-3 -6 -1 -8 5 -4 5 3 12 2 14 -4 2 -5 9 -6 16 -1 10 6 9
10 -7 14 -12 3 -24 0 -28 -5z"/>
<path d="M1311 3698 c-1 -4 3 -18 9 -32 6 -17 6 -26 0 -26 -6 0 -10 5 -10 12
0 6 -3 8 -6 5 -4 -4 5 -24 20 -45 28 -41 33 -57 14 -46 -9 5 -8 2 1 -10 8 -9
21 -14 30 -11 11 3 9 0 -4 -11 l-20 -16 20 4 c12 2 19 -2 18 -9 -2 -7 4 -13
13 -13 10 0 12 4 7 13 -4 6 -8 15 -9 20 -1 4 -3 9 -4 12 -1 3 -4 10 -5 15 -1
6 -3 11 -5 13 -1 1 -3 9 -5 19 -4 23 -24 56 -25 40 0 -7 -5 -10 -10 -7 -8 5
-7 12 2 23 7 10 8 14 3 9 -5 -4 -14 5 -21 20 -7 16 -13 25 -13 21z m44 -80 c5
4 5 2 2 -5 -4 -6 -1 -14 5 -16 8 -3 8 -6 2 -6 -6 -1 -19 9 -30 21 -12 14 -13
18 -3 10 9 -6 20 -8 24 -4z m19 -47 c3 -5 -1 -11 -9 -14 -9 -4 -12 -1 -8 9 6
16 10 17 17 5z"/>
<path d="M1270 3670 c0 -5 5 -10 11 -10 5 0 7 5 4 10 -3 6 -8 10 -11 10 -2 0
-4 -4 -4 -10z"/>
<path d="M4013 1015 c0 -8 4 -12 9 -9 5 3 6 10 3 15 -9 13 -12 11 -12 -6z"/>
<path d="M4155 811 c-3 -5 -2 -12 3 -15 5 -3 9 1 9 9 0 17 -3 19 -12 6z"/>
<path d="M4234 799 c-3 -6 -2 -15 3 -20 5 -5 9 -1 9 11 0 23 -2 24 -12 9z"/>
<path d="M4284 778 c-3 -5 -3 -12 0 -15 3 -4 6 -1 6 5 0 7 5 12 11 12 5 0 8
-4 4 -9 -3 -5 0 -13 7 -17 7 -4 10 -4 6 1 -4 4 -1 13 7 19 13 9 11 11 -10 12
-14 1 -28 -2 -31 -8z"/>
</g>
</svg>
