<?xml version="1.0" standalone="no"?>
<!DOCTYPE svg PUBLIC "-//W3C//DTD SVG 20010904//EN"
 "http://www.w3.org/TR/2001/REC-SVG-20010904/DTD/svg10.dtd">
<svg version="1.0" xmlns="http://www.w3.org/2000/svg"
 width="400.000000pt" height="400.000000pt" viewBox="0 0 400.000000 400.000000"
 preserveAspectRatio="xMidYMid meet">
<metadata>
Created by potrace 1.14, written by Peter Selinger 2001-2017
</metadata>
<g transform="translate(0.000000,400.000000) scale(0.100000,-0.100000)"
fill="#000000" stroke="none">
<path d="M2096 3523 c-9 -9 -32 -11 -201 -17 -71 -3 -130 -6 -130 -6 0 -2 -99
-11 -117 -11 -10 0 -18 -4 -18 -7 0 -4 -8 -8 -17 -9 -10 -1 -31 -7 -48 -14
-16 -7 -33 -12 -37 -11 -3 1 -12 -5 -18 -13 -7 -8 -21 -15 -31 -15 -11 0 -19
-5 -19 -11 0 -5 -4 -7 -10 -4 -5 3 -10 2 -10 -4 0 -6 -7 -8 -15 -5 -8 4 -15 2
-15 -4 0 -5 -12 -12 -27 -15 -16 -4 -42 -20 -59 -36 -18 -16 -35 -27 -38 -24
-3 4 -6 2 -6 -4 0 -15 -36 -53 -50 -53 -7 0 -10 -3 -7 -6 4 -4 -10 -16 -31
-26 -20 -11 -43 -27 -49 -36 -7 -9 -13 -12 -13 -6 0 5 -3 5 -8 -1 -4 -5 -28
-24 -53 -42 -39 -27 -56 -32 -112 -34 -88 -3 -111 -22 -103 -85 3 -25 1 -44
-5 -44 -5 0 -8 -3 -7 -7 5 -18 -42 -98 -80 -139 -7 -8 -10 -18 -7 -24 3 -5 0
-10 -7 -10 -7 0 -37 -22 -67 -50 -30 -27 -58 -50 -62 -50 -5 0 -9 -5 -9 -11 0
-7 -13 -25 -30 -41 -16 -15 -30 -32 -30 -36 0 -4 -11 -19 -24 -34 -14 -14 -23
-28 -20 -30 2 -3 -5 -22 -15 -44 -27 -55 -43 -120 -46 -184 -2 -30 -4 -55 -5
-55 -12 0 -19 -186 -7 -202 6 -8 6 -13 0 -13 -6 0 -9 -30 -7 -72 2 -40 4 -112
6 -160 2 -49 6 -88 9 -88 3 0 5 -11 3 -25 -1 -14 6 -55 16 -91 10 -35 19 -68
19 -72 1 -4 8 -15 16 -24 8 -10 12 -18 10 -18 -3 0 0 -10 7 -22 12 -23 17 -39
20 -70 1 -10 6 -18 10 -18 4 0 8 -5 8 -10 0 -6 18 -40 39 -75 22 -36 35 -65
30 -65 -6 0 -7 -5 -3 -11 3 -6 8 -32 10 -58 3 -25 7 -53 11 -61 3 -8 8 -24 10
-35 2 -11 8 -22 13 -23 6 -2 8 -8 4 -13 -3 -5 -1 -9 4 -9 6 0 8 -9 5 -19 -3
-13 2 -21 15 -25 11 -4 23 -13 25 -21 7 -16 103 -66 111 -58 3 4 6 1 6 -5 0
-7 7 -12 15 -12 8 0 15 -4 15 -8 0 -14 36 -52 49 -52 7 0 9 -4 6 -10 -3 -5 -2
-10 2 -10 5 0 16 -18 26 -40 9 -22 22 -40 28 -40 5 0 7 -4 4 -10 -3 -5 1 -10
10 -10 9 0 14 -4 11 -9 -5 -8 71 -37 87 -33 4 1 7 -1 7 -6 0 -4 15 -13 33 -21
17 -8 58 -40 90 -72 32 -33 62 -59 68 -59 6 0 7 -4 4 -10 -3 -5 1 -10 9 -10 9
0 16 -4 16 -8 0 -13 81 -52 113 -54 15 -1 27 -5 27 -9 0 -7 7 -8 90 -9 82 0
122 3 138 13 6 5 12 4 12 0 0 -11 81 -10 99 1 9 6 12 5 8 -1 -3 -5 14 -10 41
-10 198 -3 316 -2 367 1 33 3 84 6 113 7 28 1 52 5 52 8 0 4 15 6 33 6 17 -1
43 2 57 6 24 7 106 30 123 35 4 1 9 3 12 4 3 1 8 3 13 4 4 2 25 8 47 14 22 6
49 13 60 15 40 7 112 50 182 107 7 6 16 10 21 10 4 0 23 14 40 31 18 17 32 29
32 26 0 -5 33 21 71 56 10 9 19 15 19 12 0 -5 45 32 82 68 10 9 21 17 26 17 4
0 20 16 36 35 16 19 33 32 39 28 6 -3 7 -1 4 4 -4 6 6 25 23 42 16 18 29 35
30 39 1 21 13 42 21 42 6 0 7 4 4 10 -3 5 -2 10 4 10 5 0 15 17 22 38 7 20 18
46 25 57 19 31 48 135 49 182 1 23 6 47 11 55 6 7 9 23 8 36 0 12 3 22 7 22 5
0 8 3 7 8 -4 19 15 61 26 55 6 -3 8 -2 3 2 -4 5 -1 18 6 29 7 12 19 39 26 61
7 23 30 58 52 79 31 32 37 44 33 65 -7 27 -32 54 -44 46 -8 -5 -8 -3 -14 105
-2 47 -5 85 -6 85 -12 0 -14 119 -3 140 22 40 39 255 21 255 -5 0 -8 7 -8 15
0 8 -9 24 -20 35 -11 11 -17 20 -13 20 3 0 -3 8 -13 18 -23 21 -49 72 -65 130
-7 23 -16 42 -21 42 -4 0 -8 9 -8 20 0 11 -5 20 -12 20 -6 0 -8 3 -5 7 4 3 -5
22 -19 40 -14 19 -24 37 -21 39 3 3 -5 16 -17 29 -13 13 -29 42 -36 65 -7 22
-17 40 -22 40 -4 0 -8 5 -8 11 0 6 -26 37 -57 69 -74 75 -105 110 -95 110 4 0
-6 9 -23 20 -16 11 -25 20 -20 20 6 0 1 7 -9 15 -11 8 -16 15 -12 15 23 0 -77
80 -119 95 -57 22 -133 62 -153 82 -8 7 -17 11 -21 8 -5 -2 -16 4 -26 15 -10
11 -24 20 -32 20 -7 0 -13 3 -13 8 0 4 -13 13 -29 20 -27 12 -120 70 -131 82
-11 12 -79 30 -133 34 -32 3 -63 8 -69 12 -7 5 -8 3 -3 -5 5 -10 3 -11 -11 -4
-21 10 -190 10 -201 0 -3 -4 -11 -2 -18 3 -7 5 -15 7 -19 3z"/>
</g>
</svg>
